<mxfile host="app.diagrams.net" modified="2021-10-13T17:26:31.998Z" agent="5.0 (X11)" etag="7IqJpOINT8Rvf_LGyHym" version="15.4.3" type="github">
  <diagram id="jbjxkK-QvCy5GRfT9L9N" name="Page-1">
    <mxGraphModel dx="1036" dy="481" grid="1" gridSize="10" guides="1" tooltips="1" connect="1" arrows="1" fold="1" page="1" pageScale="1" pageWidth="827" pageHeight="1169" math="0" shadow="0">
      <root>
        <mxCell id="0" />
        <mxCell id="1" parent="0" />
        <mxCell id="5qDBkmqsPSAr6GN0GHje-7" value="EQUIP" style="rounded=0;whiteSpace=wrap;html=1;" vertex="1" parent="1">
          <mxGeometry x="160" y="110" width="120" height="60" as="geometry" />
        </mxCell>
        <mxCell id="5qDBkmqsPSAr6GN0GHje-9" value="JUGADOR" style="rounded=0;whiteSpace=wrap;html=1;" vertex="1" parent="1">
          <mxGeometry x="440" y="110" width="120" height="60" as="geometry" />
        </mxCell>
        <mxCell id="5qDBkmqsPSAr6GN0GHje-10" value="TEMPORADA" style="rounded=0;whiteSpace=wrap;html=1;" vertex="1" parent="1">
          <mxGeometry x="300" y="310" width="120" height="60" as="geometry" />
        </mxCell>
        <mxCell id="5qDBkmqsPSAr6GN0GHje-20" style="edgeStyle=orthogonalEdgeStyle;rounded=0;orthogonalLoop=1;jettySize=auto;html=1;exitX=1;exitY=0;exitDx=0;exitDy=0;entryX=0.5;entryY=1;entryDx=0;entryDy=0;" edge="1" parent="1" source="5qDBkmqsPSAr6GN0GHje-15" target="5qDBkmqsPSAr6GN0GHje-9">
          <mxGeometry relative="1" as="geometry" />
        </mxCell>
        <mxCell id="5qDBkmqsPSAr6GN0GHje-21" style="edgeStyle=orthogonalEdgeStyle;rounded=0;orthogonalLoop=1;jettySize=auto;html=1;exitX=0;exitY=0;exitDx=0;exitDy=0;entryX=0.5;entryY=1;entryDx=0;entryDy=0;" edge="1" parent="1" source="5qDBkmqsPSAr6GN0GHje-15" target="5qDBkmqsPSAr6GN0GHje-7">
          <mxGeometry relative="1" as="geometry" />
        </mxCell>
        <mxCell id="5qDBkmqsPSAr6GN0GHje-22" style="edgeStyle=orthogonalEdgeStyle;rounded=0;orthogonalLoop=1;jettySize=auto;html=1;exitX=0.5;exitY=1;exitDx=0;exitDy=0;" edge="1" parent="1" source="5qDBkmqsPSAr6GN0GHje-15" target="5qDBkmqsPSAr6GN0GHje-10">
          <mxGeometry relative="1" as="geometry" />
        </mxCell>
        <mxCell id="5qDBkmqsPSAr6GN0GHje-15" value="Juga" style="rhombus;whiteSpace=wrap;html=1;" vertex="1" parent="1">
          <mxGeometry x="320" y="200" width="80" height="40" as="geometry" />
        </mxCell>
        <mxCell id="5qDBkmqsPSAr6GN0GHje-17" style="edgeStyle=orthogonalEdgeStyle;rounded=0;orthogonalLoop=1;jettySize=auto;html=1;exitX=0.5;exitY=1;exitDx=0;exitDy=0;entryX=0;entryY=0.5;entryDx=0;entryDy=0;" edge="1" parent="1" source="5qDBkmqsPSAr6GN0GHje-16" target="5qDBkmqsPSAr6GN0GHje-7">
          <mxGeometry relative="1" as="geometry" />
        </mxCell>
        <mxCell id="5qDBkmqsPSAr6GN0GHje-18" style="edgeStyle=orthogonalEdgeStyle;rounded=0;orthogonalLoop=1;jettySize=auto;html=1;exitX=1;exitY=0.5;exitDx=0;exitDy=0;entryX=0.5;entryY=0;entryDx=0;entryDy=0;" edge="1" parent="1" source="5qDBkmqsPSAr6GN0GHje-16" target="5qDBkmqsPSAr6GN0GHje-7">
          <mxGeometry relative="1" as="geometry" />
        </mxCell>
        <mxCell id="5qDBkmqsPSAr6GN0GHje-16" value="JugaPartit" style="rhombus;whiteSpace=wrap;html=1;" vertex="1" parent="1">
          <mxGeometry x="60" y="50" width="80" height="40" as="geometry" />
        </mxCell>
        <mxCell id="5qDBkmqsPSAr6GN0GHje-19" value="" style="ellipse;whiteSpace=wrap;html=1;" vertex="1" parent="1">
          <mxGeometry x="40" width="40" height="40" as="geometry" />
        </mxCell>
      </root>
    </mxGraphModel>
  </diagram>
</mxfile>
